<svg width="31" height="31" viewBox="0 0 31 31" fill="none" xmlns="http://www.w3.org/2000/svg">
<path d="M1.90234 4.22852C5.89745 0.17091 8.16632 2.27517 8.17285 2.28125L11.8271 7.91602C11.8292 7.92489 12.18 9.46321 11.7227 10.416C11.1213 11.6678 8.75215 12.8161 8.7334 12.8252C8.7334 12.8252 10.8511 16.8182 13.168 18.8164C15.1695 20.5426 19.036 22.442 19.0566 22.4521C19.0566 22.4521 20.2554 20.1821 21.4502 19.4873C22.3081 18.9887 23.7166 19.0229 23.7383 19.0234L29.8115 22.46C29.8115 22.46 31.936 24.441 28.1084 28.666C25.9305 31.0701 22.2664 30.9842 22.2354 30.9834C22.2354 30.9834 14.3235 29.9152 7.9707 23.9912C1.61789 18.0671 0 10.249 0 10.249C0.00118436 10.2202 0.178323 5.97952 1.90234 4.22852ZM29.5957 0C30.3048 0.000195919 30.8799 0.575066 30.8799 1.28418V12.3145C30.8799 13.031 30.2986 13.6122 29.582 13.6123C28.8654 13.6122 28.2842 13.0311 28.2842 12.3145V6.78223C28.2842 5.8939 27.2125 5.44659 26.5811 6.07129L19.7588 12.8223C19.252 13.3235 18.4305 13.3237 17.9238 12.8223C17.4173 12.3208 17.4173 11.5073 17.9238 11.0059L24.7227 4.2793C25.3575 3.65085 24.9119 2.56836 24.0186 2.56836H18.9287C18.2195 2.5683 17.6445 1.99339 17.6445 1.28418C17.6445 0.574982 18.2195 6.08132e-05 18.9287 0H29.5957Z" fill="white"/>
</svg>
