<svg width="24" height="28" viewBox="0 0 24 28" fill="none" xmlns="http://www.w3.org/2000/svg">
<path fill-rule="evenodd" clip-rule="evenodd" d="M10.2549 0.263772C10.8966 -0.322711 11.9297 0.132637 11.9297 1.00205V4.33213L12.2383 4.33604C18.6837 4.49814 23.8584 9.7205 23.8584 16.1388C23.8581 22.6588 18.5175 27.9452 11.9297 27.9454C5.34196 27.9451 0.000347942 22.6588 0 16.1388C4.47035e-07 16.0518 0.0010373 15.9646 0.00292969 15.878L1.91309 15.9728C1.91216 16.0279 1.90918 16.0835 1.90918 16.1388C1.90953 21.6155 6.39607 26.0555 11.9297 26.0558C17.4633 26.0555 21.9489 21.6155 21.9492 16.1388C21.9492 10.8328 17.7396 6.49924 12.4453 6.2335L11.9297 6.2208V9.55088C11.9296 10.4201 10.8966 10.8753 10.2549 10.2892L5.5791 6.01377C5.14569 5.61727 5.14553 4.93459 5.5791 4.53819L10.2549 0.263772Z" fill="white"/>
</svg>
