<svg viewBox="0 0 26 37" fill="none" xmlns="http://www.w3.org/2000/svg">
<path d="M8.8457 12.3848C8.8457 12.8734 8.44958 13.2695 7.96094 13.2695H5.76953C3.56043 13.2696 1.76953 15.0604 1.76953 17.2695V30.7949C1.76967 33.0039 3.56051 34.7949 5.76953 34.7949H19.2939C21.503 34.7949 23.2938 33.0039 23.2939 30.7949V17.2695C23.2939 15.0604 21.5031 13.2695 19.2939 13.2695H17.1016C16.6129 13.2695 16.2168 12.8734 16.2168 12.3848C16.2168 11.8961 16.6129 11.5 17.1016 11.5H20.0635C22.8248 11.5002 25.0635 13.7387 25.0635 16.5V31.5635C25.0634 34.3247 22.8247 36.5633 20.0635 36.5635H5C2.23868 36.5634 0.000113385 34.3248 0 31.5635V16.5C0 13.7386 2.23861 11.5 5 11.5H7.96094C8.44958 11.5 8.8457 11.8961 8.8457 12.3848ZM12.7881 0C13.3528 0.000345314 13.8105 0.458694 13.8105 1.02344V17.21C13.8106 18.1008 14.8876 18.5469 15.5176 17.917L18.2148 15.2197C18.6407 14.7943 19.3312 14.7941 19.7568 15.2197C20.1823 15.6454 20.1822 16.336 19.7568 16.7617L13.5693 22.9492C13.3492 23.1693 13.058 23.2741 12.7695 23.2666C12.486 23.2742 12.1999 23.1713 11.9834 22.9551L5.45508 16.4268C5.03717 16.0084 5.03716 15.3305 5.45508 14.9121C5.87358 14.4939 6.55231 14.4937 6.9707 14.9121L10.0566 17.999C10.6866 18.629 11.7646 18.1828 11.7646 17.292V1.02344C11.7647 0.458481 12.2231 0 12.7881 0Z" fill="black"/>
</svg>
