<svg viewBox="0 0 41 38" fill="none" xmlns="http://www.w3.org/2000/svg">
<path fill-rule="evenodd" clip-rule="evenodd" d="M19.3302 7.19434C19.7207 6.80432 20.3539 6.80416 20.7443 7.19434L36.4269 22.877C36.6142 23.0643 36.7196 23.3191 36.7199 23.584V36.999C36.7199 37.5512 36.272 37.9999 35.7199 38H4.35465C3.80252 38 3.35491 37.5521 3.35465 37V23.584C3.3549 23.3191 3.4603 23.0643 3.64761 22.877L19.3302 7.19434ZM16.4035 24.0967C15.8515 24.0967 15.4039 24.5448 15.4035 25.0967V36.1455H24.6711V25.0967C24.6706 24.5449 24.2229 24.0968 23.6711 24.0967H16.4035ZM20.55 0C20.8152 1.21328e-05 21.0695 0.105443 21.257 0.292969L30.2326 9.26855V6.56055C30.2328 6.00846 30.6804 5.56055 31.2326 5.56055H32.9396C33.4917 5.56055 33.9394 6.00846 33.9396 6.56055V12.9756L39.7814 18.8174C40.1471 19.1831 40.174 19.7677 39.8429 20.165L38.8029 21.4131C38.4297 21.8609 37.7536 21.896 37.3361 21.4893L20.7355 5.31445C20.3472 4.93609 19.7273 4.93609 19.339 5.31445L2.73843 21.4893C2.32097 21.896 1.64576 21.8609 1.27261 21.4131L0.231599 20.165C-0.0995068 19.7677 -0.0725959 19.1831 0.293122 18.8174L18.8175 0.292969C19.005 0.105459 19.2594 3.01236e-05 19.5246 0H20.55Z" fill="white"/>
</svg>
