<svg viewBox="0 0 29 38" fill="none" xmlns="http://www.w3.org/2000/svg">
<path d="M15 10C15 11.1046 15.8954 12 17 12H29V36C29 37.1046 28.1046 38 27 38H2C0.895431 38 8.05332e-09 37.1046 0 36V2C0 0.895431 0.895431 5.63723e-08 2 0H15V10ZM7 24C6.44772 24 6 24.4477 6 25V26C6 26.5523 6.44772 27 7 27H22C22.5523 27 23 26.5523 23 26V25C23 24.4477 22.5523 24 22 24H7ZM7 19C6.44772 19 6 19.4477 6 20V21C6 21.5523 6.44772 22 7 22H22C22.5523 22 23 21.5523 23 21V20C23 19.4477 22.5523 19 22 19H7ZM29 9V11H17C16.4477 11 16 10.5523 16 10V0H20L29 9Z" fill="white"/>
</svg>
