<svg width="33" height="33" viewBox="0 0 33 33" fill="none" xmlns="http://www.w3.org/2000/svg">
<path d="M16.5 0C25.6127 0 33 7.3873 33 16.5C33 25.6127 25.6127 33 16.5 33C7.3873 33 0 25.6127 0 16.5C0 7.3873 7.3873 0 16.5 0ZM16.5 2.35645C8.68912 2.35645 2.35645 8.68912 2.35645 16.5C2.35661 24.3107 8.68922 30.6426 16.5 30.6426C24.3106 30.6424 30.6424 24.3106 30.6426 16.5C30.6426 8.68922 24.3107 2.35661 16.5 2.35645ZM22.1572 13.9287C22.5478 13.5385 23.1809 13.5383 23.5713 13.9287C23.9617 14.3191 23.9615 14.9522 23.5713 15.3428L17.207 21.707C16.8165 22.0976 16.1835 22.0976 15.793 21.707L9.42871 15.3428C9.03848 14.9522 9.03829 14.3191 9.42871 13.9287C9.81914 13.5383 10.4522 13.5385 10.8428 13.9287L16.5 19.5859L22.1572 13.9287Z" fill="white"/>
</svg>
