<svg width="33" height="33" viewBox="0 0 33 33" fill="none" xmlns="http://www.w3.org/2000/svg">
<path d="M16.5 33C7.3873 33 0 25.6127 0 16.5C0 7.3873 7.3873 0 16.5 0C25.6127 0 33 7.3873 33 16.5C33 25.6127 25.6127 33 16.5 33ZM16.5 30.6436C24.3109 30.6436 30.6436 24.3109 30.6436 16.5C30.6434 8.68926 24.3108 2.35742 16.5 2.35742C8.68936 2.35759 2.35759 8.68936 2.35742 16.5C2.35742 24.3108 8.68926 30.6434 16.5 30.6436ZM10.8428 19.0713C10.4522 19.4615 9.81914 19.4617 9.42871 19.0713C9.03829 18.6809 9.03848 18.0478 9.42871 17.6572L15.793 11.293C16.1835 10.9024 16.8165 10.9024 17.207 11.293L23.5713 17.6572C23.9615 18.0478 23.9617 18.6809 23.5713 19.0713C23.1809 19.4617 22.5478 19.4615 22.1572 19.0713L16.5 13.4141L10.8428 19.0713Z" fill="white"/>
</svg>
