<svg viewBox="0 0 26 26" fill="none" xmlns="http://www.w3.org/2000/svg">
<path fill-rule="evenodd" clip-rule="evenodd" d="M4.12207 17.7559C6.39849 17.7559 8.24411 19.6015 8.24414 21.8779C8.24414 24.1544 6.39851 25.9999 4.12207 26C1.84558 26 0 24.1544 0 21.8779C3.34978e-05 19.6015 1.8456 17.7559 4.12207 17.7559ZM13 17.7559C15.2765 17.7559 17.122 19.6015 17.1221 21.8779C17.1221 24.1544 15.2765 26 13 26C10.7236 25.9999 8.87793 24.1544 8.87793 21.8779C8.87796 19.6015 10.7236 17.756 13 17.7559ZM21.8779 17.7559C24.1544 17.7559 26 19.6015 26 21.8779C26 24.1544 24.1544 26 21.8779 26C19.6015 26 17.7559 24.1544 17.7559 21.8779C17.7559 19.6015 19.6015 17.7559 21.8779 17.7559ZM4.12207 8.87793C6.39844 8.87799 8.24403 10.7236 8.24414 13C8.24414 15.2765 6.39851 17.122 4.12207 17.1221C1.84558 17.1221 0 15.2765 0 13C0.000111818 10.7236 1.84565 8.87793 4.12207 8.87793ZM13 8.87793C15.2764 8.87793 17.122 10.7236 17.1221 13C17.1221 15.2765 15.2765 17.1221 13 17.1221C10.7236 17.122 8.87793 15.2764 8.87793 13C8.87804 10.7237 10.7237 8.87804 13 8.87793ZM21.8779 8.87793C24.1544 8.87793 25.9999 10.7236 26 13C26 15.2765 24.1544 17.1221 21.8779 17.1221C19.6015 17.122 17.7559 15.2765 17.7559 13C17.756 10.7236 19.6015 8.87796 21.8779 8.87793ZM4.12207 0C6.39851 6.44241e-05 8.24414 1.84562 8.24414 4.12207C8.24408 6.39847 6.39847 8.24408 4.12207 8.24414C1.84562 8.24414 6.44326e-05 6.39851 0 4.12207C0 1.84558 1.84558 0 4.12207 0ZM13 0C15.2765 0 17.1221 1.84558 17.1221 4.12207C17.122 6.39851 15.2765 8.24414 13 8.24414C10.7236 8.24403 8.87799 6.39844 8.87793 4.12207C8.87793 1.84565 10.7236 0.000111839 13 0ZM21.8779 0C24.1544 0 26 1.84558 26 4.12207C25.9999 6.39851 24.1544 8.24414 21.8779 8.24414C19.6015 8.24411 17.7559 6.39849 17.7559 4.12207C17.7559 1.8456 19.6015 3.35013e-05 21.8779 0Z" fill="#D9D9D9"/>
</svg>
