<svg viewBox="0 0 34 34" fill="none" xmlns="http://www.w3.org/2000/svg">
<path d="M17 0C17.8734 0 18.582 0.707674 18.582 1.58105V6.0625C23.4805 6.7469 27.3742 10.56 28.1787 15.4189H32.4189C33.2922 15.4189 33.9998 16.1268 34 17C34 17.8734 33.2923 18.582 32.4189 18.582H28.2578C27.6727 23.7083 23.6691 27.793 18.582 28.5039V32.4189C18.5818 33.2922 17.8733 34 17 34C16.1269 33.9998 15.4191 33.2921 15.4189 32.4189V28.5039C10.3316 27.7934 6.32824 23.7086 5.74316 18.582H1.58105C0.707832 18.5818 0 17.8733 0 17C0.000184076 16.1269 0.707944 15.4191 1.58105 15.4189H5.82227C6.62676 10.5597 10.5201 6.74655 15.4189 6.0625V1.58105C15.4189 0.707788 16.1268 0.000184151 17 0ZM18.582 10.6738C18.582 11.5472 17.8734 12.2549 17 12.2549C16.1268 12.2547 15.4189 11.5471 15.4189 10.6738V8.35645C11.7739 8.99759 8.87951 11.8139 8.12598 15.4189H10.6748C11.5479 15.4192 12.2557 16.1269 12.2559 17C12.2559 17.8733 11.548 18.5818 10.6748 18.582H8.02734C8.58304 22.455 11.5855 25.5347 15.4189 26.209V23.3252C15.4192 22.4521 16.1269 21.7443 17 21.7441C17.8733 21.7441 18.5818 22.452 18.582 23.3252V26.209C22.4149 25.5343 25.417 22.4547 25.9727 18.582H23.3262C22.4528 18.582 21.7451 17.8734 21.7451 17C21.7453 16.1268 22.4529 15.4189 23.3262 15.4189H25.873C25.1196 11.8144 22.2264 8.99796 18.582 8.35645V10.6738Z" fill="#D9D9D9"/>
</svg>
