<svg width="41" height="38" viewBox="0 0 41 38" fill="none" xmlns="http://www.w3.org/2000/svg">
<path d="M41 1.00059C41 0.357584 40.4019 -0.118455 39.7754 0.0259822L28.7754 2.56407C28.3217 2.66877 28 3.07306 28 3.53868V36.4859C28 37.129 28.5981 37.605 29.2246 37.4606L40.2246 34.9225C40.6783 34.8178 41 34.4135 41 33.9479V1.00059ZM15.2246 0.0259822C14.5981 -0.118455 14 0.357584 14 1.00059V33.9479C14 34.4135 14.3217 34.8178 14.7754 34.9225L25.7754 37.4606C26.4019 37.605 27 37.129 27 36.4859V3.53868C27 3.07306 26.6783 2.66877 26.2246 2.56407L15.2246 0.0259822ZM13 1.00059C13 0.357584 12.4019 -0.118455 11.7754 0.0259822L0.775391 2.56407C0.321693 2.66877 4.57764e-05 3.07306 0 3.53868V36.4859C0 37.129 0.598076 37.605 1.22461 37.4606L12.2246 34.9225C12.6783 34.8178 13 34.4135 13 33.9479V1.00059Z" fill="white"/>
</svg>
