<svg viewBox="0 0 36 36" fill="none" xmlns="http://www.w3.org/2000/svg">
<path d="M18 0C27.9411 0 36 8.05887 36 18C36 27.9411 27.9411 36 18 36C8.05887 36 0 27.9411 0 18C1.03081e-06 8.05888 8.05888 1.03088e-06 18 0ZM18 3.59961C10.0471 3.59961 3.59961 10.0471 3.59961 18C3.59961 25.9529 10.0471 32.4004 18 32.4004C25.9529 32.4004 32.4004 25.9529 32.4004 18C32.4004 10.0471 25.9529 3.59961 18 3.59961ZM9.90039 15.2998C11.3914 15.3 12.5996 16.509 12.5996 18C12.5996 19.491 11.3914 20.7 9.90039 20.7002C8.40922 20.7002 7.2002 19.4912 7.2002 18C7.2002 16.5088 8.40922 15.2998 9.90039 15.2998ZM18 15.2998C19.4912 15.2998 20.7002 16.5088 20.7002 18C20.7002 19.4912 19.4912 20.7002 18 20.7002C16.5088 20.7002 15.2998 19.4912 15.2998 18C15.2998 16.5088 16.5088 15.2998 18 15.2998ZM26.0996 15.2998C27.5908 15.2998 28.7998 16.5088 28.7998 18C28.7998 19.4912 27.5908 20.7002 26.0996 20.7002C24.6086 20.7 23.4004 19.491 23.4004 18C23.4004 16.509 24.6086 15.3 26.0996 15.2998Z" fill="white"/>
</svg>
