<svg viewBox="0 0 27 27" fill="none" xmlns="http://www.w3.org/2000/svg">
<path d="M10.5127 14.4883C11.6172 14.4884 12.5127 15.3838 12.5127 16.4883V25.001C12.5125 26.1053 11.6171 27.0009 10.5127 27.001H2C0.895537 27.001 0.000173174 26.1054 0 25.001V16.4883C0 15.3837 0.895431 14.4883 2 14.4883H10.5127ZM25.001 14.4883C26.1055 14.4883 27.001 15.3837 27.001 16.4883V25.001C27.0008 26.1054 26.1054 27.001 25.001 27.001H16.4883C15.384 27.0008 14.4885 26.1053 14.4883 25.001V16.4883C14.4883 15.3838 15.3838 14.4884 16.4883 14.4883H25.001ZM2.31738 15.8057C1.76526 15.8057 1.31765 16.2526 1.31738 16.8047V24.6836C1.31751 25.2358 1.76517 25.6836 2.31738 25.6836H10.1953C10.7475 25.6836 11.1952 25.2358 11.1953 24.6836V16.8047C11.195 16.2526 10.7474 15.8057 10.1953 15.8057H2.31738ZM16.8057 15.8057C16.2536 15.8057 15.8059 16.2527 15.8057 16.8047V24.6836C15.8058 25.2357 16.2535 25.6835 16.8057 25.6836H24.6836C25.2358 25.6836 25.6835 25.2358 25.6836 24.6836V16.8047C25.6833 16.2526 25.2357 15.8057 24.6836 15.8057H16.8057ZM25.001 0C26.1054 6.01215e-06 27.0007 0.895659 27.001 2V10.5127C27.0009 11.6172 26.1055 12.5127 25.001 12.5127H16.4883C15.3839 12.5125 14.4883 11.6171 14.4883 10.5127V2C14.4885 0.895753 15.384 0.000160784 16.4883 0H25.001ZM10.5127 0C11.6171 8.64687e-05 12.5125 0.895609 12.5127 2V10.5117C12.5127 11.6162 11.6172 12.5116 10.5127 12.5117H2C0.895431 12.5117 0 11.6163 0 10.5117V2C0.000146589 0.895555 0.895521 0 2 0H10.5127ZM2.31738 1.31738C1.76519 1.31738 1.31753 1.76522 1.31738 2.31738V10.1953C1.31744 10.7475 1.76513 11.1953 2.31738 11.1953H10.1953C10.7475 11.1953 11.1953 10.7475 11.1953 10.1953V2.31738C11.1952 1.76524 10.7475 1.31742 10.1953 1.31738H2.31738ZM16.8057 1.31738C16.2536 1.31746 15.8059 1.76532 15.8057 2.31738V10.1953C15.8057 10.7475 16.2534 11.1952 16.8057 11.1953H24.6836C25.2359 11.1953 25.6836 10.7476 25.6836 10.1953V2.31738C25.6834 1.76527 25.2358 1.31738 24.6836 1.31738H16.8057Z" fill="#D9D9D9"/>
</svg>
