<svg width="35" height="34" viewBox="0 0 35 34" fill="none" xmlns="http://www.w3.org/2000/svg">
<path d="M30.4756 0C32.6845 0.000295514 34.4756 1.79104 34.4756 4V24.0615C34.4756 26.2705 32.6845 28.0612 30.4756 28.0615H16.3818C16.318 28.1439 16.2392 28.2207 16.1426 28.2861L7.97461 33.8193C7.3106 34.2689 6.41407 33.7932 6.41406 32.9912V28.0615H4C1.79086 28.0615 0 26.2707 0 24.0615V4C0 1.79086 1.79086 0 4 0H30.4756ZM6.81445 16.8369C6.15043 16.837 5.61244 17.375 5.6123 18.0391C5.61235 18.7032 6.15038 19.2421 6.81445 19.2422H18.8408C19.5048 19.2419 20.0439 18.7031 20.0439 18.0391C20.0438 17.3751 19.5047 16.8372 18.8408 16.8369H6.81445ZM6.81445 11.2246C6.15046 11.2247 5.61248 11.7628 5.6123 12.4268C5.61235 13.0909 6.15037 13.6298 6.81445 13.6299H26.0566C26.7206 13.6296 27.2597 13.0908 27.2598 12.4268C27.2596 11.7629 26.7205 11.2249 26.0566 11.2246H6.81445ZM6.81445 5.6123C6.15049 5.61242 5.61253 6.15051 5.6123 6.81445C5.61235 7.47855 6.15037 8.01747 6.81445 8.01758H26.0566C26.7206 8.01731 27.2597 7.47845 27.2598 6.81445C27.2595 6.1506 26.7205 5.61257 26.0566 5.6123H6.81445Z" fill="white"/>
</svg>
