<svg width="25" height="25" viewBox="0 0 25 25" fill="none" xmlns="http://www.w3.org/2000/svg">
<path fill-rule="evenodd" clip-rule="evenodd" d="M12.5 0C19.4038 0 25.0009 5.59643 25.001 12.5C25.001 19.4036 19.4039 25 12.5 25C5.59619 24.9999 0 19.4036 0 12.5C4.12464e-05 5.59647 5.59621 5.34079e-05 12.5 0ZM12.5 1.66699C6.51665 1.66699 1.66602 6.51688 1.66602 12.5C1.66606 18.4831 6.51668 23.333 12.5 23.333C18.4833 23.3329 23.3339 18.483 23.334 12.5C23.334 6.51692 18.4833 1.66706 12.5 1.66699Z" fill="white"/>
<path d="M17.1129 6.36364V18H15.7493L9.40838 8.86364H9.29474V18H7.88565V6.36364H9.24929L15.6129 15.5227H15.7266V6.36364H17.1129Z" fill="white"/>
</svg>
