<svg viewBox="0 0 37 37" fill="none" xmlns="http://www.w3.org/2000/svg">
<path fill-rule="evenodd" clip-rule="evenodd" d="M18.5 0C28.7173 0 37 8.28273 37 18.5C37 28.7173 28.7173 37 18.5 37C8.28273 37 0 28.7173 0 18.5C1.01328e-06 8.28273 8.28273 1.03088e-06 18.5 0ZM18.5 2.77539C9.81532 2.77539 2.77539 9.81532 2.77539 18.5C2.77539 27.1847 9.81532 34.2246 18.5 34.2246C27.1847 34.2246 34.2246 27.1847 34.2246 18.5C34.2246 9.81532 27.1847 2.77539 18.5 2.77539ZM25.2129 9.3252C26.0293 8.95927 26.879 9.76796 26.5537 10.6016L19.3691 29.0107C18.9728 30.0264 17.3857 29.7693 17.2979 28.6826C17.041 25.5034 16.5668 21.809 15.7246 20.9668C14.8423 20.0849 10.9332 19.6062 7.74902 19.3584C6.68977 19.276 6.40566 17.7641 7.375 17.3291L25.2129 9.3252Z" fill="white"/>
</svg>
