<svg viewBox="0 0 25 26" fill="none" xmlns="http://www.w3.org/2000/svg">
<path d="M14.6084 11.9199C15.7128 11.9201 16.6084 12.8155 16.6084 13.9199V23.542C16.6083 24.6464 15.7128 25.5418 14.6084 25.542H2C0.895477 25.542 7.47065e-05 24.6465 0 23.542V13.9199C0 12.8154 0.895431 11.9199 2 11.9199H13.4141V5.1084C13.4141 2.28712 15.988 0 19.1631 0C22.3381 7.15391e-05 24.9121 2.28716 24.9121 5.1084V11.9199H22.9961V5.1084H22.9824C22.8316 3.20374 21.1803 1.70317 19.1631 1.70312C17.1459 1.70328 15.4936 3.20377 15.3428 5.1084H15.3301V11.9199H14.6084Z" fill="#D9D9D9"/>
</svg>
