<svg viewBox="0 0 39 36" fill="none" xmlns="http://www.w3.org/2000/svg">
<path d="M19.248 9.63281C21.7236 9.63285 23.7304 11.6397 23.7305 14.1152C23.7303 16.1598 22.3606 17.8824 20.4893 18.4209C20.5381 18.5587 20.5664 18.7067 20.5664 18.8613V34.6816C20.5664 35.4098 19.9762 36 19.248 36C18.5199 36 17.9297 35.4098 17.9297 34.6816V18.8613C17.9297 18.7069 17.9571 18.5586 18.0059 18.4209C16.1349 17.8822 14.7658 16.1595 14.7656 14.1152C14.7657 11.6397 16.7725 9.63285 19.248 9.63281ZM32.333 0C36.1236 3.51552 38.497 8.53792 38.4971 14.1152C38.4969 19.7049 36.113 24.7375 32.3076 28.2539L30.8145 26.7617C34.2392 23.6279 36.3877 19.122 36.3877 14.1143C36.3875 9.11963 34.2501 4.62467 30.8408 1.49219L32.333 0ZM7.57324 1.56836C4.21223 4.69732 2.10955 9.16005 2.10938 14.1143C2.10938 19.0813 4.2235 23.5541 7.59961 26.6846L6.10645 28.1777C2.34924 24.665 0.00012377 19.6645 0 14.1152C9.82515e-05 8.57834 2.33855 3.58786 6.08105 0.0761719L7.57324 1.56836ZM27.1055 5.22852C29.562 7.4024 31.1132 10.5769 31.1133 14.1152C31.1131 17.667 29.5501 20.852 27.0771 23.0264L25.582 21.5312C27.675 19.742 29.0038 17.0846 29.0039 14.1152C29.0039 11.1594 27.6877 8.51173 25.6113 6.72266L27.1055 5.22852ZM12.7998 6.79688C10.7725 8.58457 9.49223 11.1999 9.49219 14.1152C9.49234 17.044 10.7846 19.6699 12.8281 21.458L11.333 22.9531C8.909 20.7808 7.38296 17.6264 7.38281 14.1152C7.38286 10.6175 8.89684 7.47336 11.3047 5.30176L12.7998 6.79688ZM19.248 11.7422C17.9375 11.7422 16.875 12.8047 16.875 14.1152C16.8752 15.4256 17.9376 16.4882 19.248 16.4883C20.5585 16.4882 21.6209 15.4256 21.6211 14.1152C21.621 12.8047 20.5586 11.7422 19.248 11.7422Z" fill="white"/>
</svg>
