<svg viewBox="0 0 25 27" fill="none" xmlns="http://www.w3.org/2000/svg">
<path fill-rule="evenodd" clip-rule="evenodd" d="M13.7817 0C14.334 0 14.7817 0.447715 14.7817 1V7.77466C14.7817 8.54449 15.6151 9.02561 16.2818 8.64066L22.147 5.25391C22.6252 4.97772 23.2371 5.1418 23.5132 5.62012L24.8179 7.87988C25.0939 8.3582 24.9299 8.96991 24.4516 9.24609L18.5872 12.6321C17.9206 13.017 17.9205 13.9792 18.5871 14.3641L24.4555 17.7529C24.9337 18.0291 25.0969 18.6409 24.8208 19.1191L23.5161 21.3789C23.24 21.8572 22.6282 22.0213 22.1499 21.7451L16.2818 18.3565C15.6151 17.9715 14.7817 18.4526 14.7817 19.2225V26C14.7817 26.5523 14.334 27 13.7817 27H11.1723C10.6201 27 10.1723 26.5523 10.1723 26V19.2236C10.1723 18.4538 9.33885 17.9726 8.67218 18.3577L2.80418 21.7471C2.32591 22.0232 1.71406 21.8592 1.43797 21.3809L0.134256 19.1211C-0.141795 18.6429 0.0214084 18.0311 0.49949 17.7549L6.36888 14.3652C7.03547 13.9802 7.03538 13.018 6.36872 12.6332L0.501443 9.24609C0.0233287 8.96989 -0.140863 8.3581 0.135232 7.87988L1.4409 5.62012C1.71704 5.14213 2.32798 4.9781 2.80613 5.25391L8.67242 8.64007C9.33909 9.02489 10.1723 8.54376 10.1723 7.774V1C10.1723 0.447715 10.6201 0 11.1723 0H13.7817Z" fill="#D9D9D9"/>
</svg>
