<svg viewBox="0 0 31 24" fill="none" xmlns="http://www.w3.org/2000/svg">
<path d="M28.5459 0C29.6503 0.000239889 30.5459 0.895579 30.5459 2V22C30.5459 23.1044 29.6503 23.9998 28.5459 24H2C0.895431 24 0 23.1046 0 22V2C1.03059e-06 0.895431 0.895431 0 2 0H28.5459ZM11.373 12.9307C10.9484 12.4529 10.1904 12.4912 9.81543 13.0088L4.05762 20.96C3.57968 21.6211 4.05211 22.5459 4.86816 22.5459H25.6367C26.4604 22.5457 26.9303 21.6054 26.4365 20.9463L20.6914 13.2861C20.3262 12.7998 19.6147 12.7495 19.1846 13.1797L17.5605 14.8037C17.2509 15.1133 16.8812 15.3568 16.4746 15.5195L16.416 15.543C15.6823 15.8364 14.8637 15.8363 14.1299 15.543C13.6863 15.3655 13.2891 15.0875 12.9717 14.7305L11.373 12.9307ZM3.20996 4.21191C2.60399 3.5116 1.4541 3.94012 1.4541 4.86621V19.2939C1.45486 20.2731 2.71695 20.6677 3.27539 19.8633L8.83008 11.8545C9.09006 11.4795 9.06298 10.9761 8.76465 10.6309L3.20996 4.21191ZM28.9092 4.86621C28.9092 3.94012 27.7583 3.5116 27.1523 4.21191L21.5986 10.6309C21.3002 10.976 21.2724 11.4795 21.5322 11.8545L27.0869 19.8633C27.6453 20.6679 28.9085 20.2732 28.9092 19.2939V4.86621ZM5.01855 1.45508C4.14193 1.45516 3.68989 2.50268 4.29102 3.14062L13.8174 13.2451C14.6068 14.0821 15.9391 14.0821 16.7285 13.2451L26.2549 3.14062C26.8559 2.50271 26.4038 1.4553 25.5273 1.45508H5.01855Z" fill="#D9D9D9"/>
</svg>
