<svg viewBox="0 0 26 26" fill="none" xmlns="http://www.w3.org/2000/svg">
<path d="M8.97828 0.0555769C14.4849 -0.523135 19.4187 3.47161 19.9977 8.97801C20.2472 11.3523 19.6437 13.6184 18.4379 15.4764C18.533 15.549 18.6227 15.6313 18.7046 15.7243L24.9158 22.7915C25.5819 23.5497 25.5018 24.6976 24.7365 25.3556C23.9712 26.0136 22.8102 25.9326 22.1438 25.1744L15.9426 18.118C14.5601 19.1306 12.9012 19.8045 11.0742 19.9965C5.56753 20.5751 0.634508 16.5805 0.0557512 11.074C-0.522819 5.56761 3.47179 0.634474 8.97828 0.0555769ZM9.16886 1.86883C4.66349 2.34247 1.39467 6.37919 1.86814 10.8845C2.3418 15.3897 6.37834 18.6577 10.8837 18.1842C15.3891 17.7106 18.6579 13.6748 18.1845 9.16956C17.7109 4.66425 13.6743 1.39534 9.16886 1.86883Z" fill="#D9D9D9"/>
</svg>
