<svg viewBox="0 0 27 26" fill="none" xmlns="http://www.w3.org/2000/svg">
<path d="M21.0713 0C23.8327 6.56754e-05 26.0713 2.23862 26.0713 5V16.2207C26.0713 18.9821 23.8327 21.2206 21.0713 21.2207H11.9668C11.9183 21.4538 11.7865 21.6756 11.5498 21.8359L6.41113 25.3174C5.7472 25.7667 4.85077 25.291 4.85059 24.4893V21.2158C2.15832 21.1368 0 18.9321 0 16.2207V5C8.45077e-07 2.23858 2.23858 7.78617e-06 5 0H21.0713ZM5.15332 12.7324C4.65117 12.7325 4.24418 13.1394 4.24414 13.6416C4.24418 14.1438 4.65117 14.5507 5.15332 14.5508H14.248C14.7503 14.5507 15.1572 14.1438 15.1572 13.6416C15.1572 13.1394 14.7503 12.7325 14.248 12.7324H5.15332ZM5.15332 8.48828C4.65119 8.4884 4.24422 8.89532 4.24414 9.39746C4.24418 9.89963 4.65117 10.3065 5.15332 10.3066H19.7051C20.2072 10.3065 20.6142 9.89963 20.6143 9.39746C20.6142 8.89533 20.2072 8.48842 19.7051 8.48828H5.15332ZM5.15332 4.24414C4.65122 4.24426 4.24426 4.65121 4.24414 5.15332C4.24418 5.65549 4.65117 6.06335 5.15332 6.06348H19.7051C20.2072 6.06334 20.6142 5.65549 20.6143 5.15332C20.6141 4.65122 20.2072 4.24428 19.7051 4.24414H5.15332Z" fill="#D9D9D9"/>
</svg>
